PERFORMER "Angus & Julia Stone"
TITLE "Memories of an Old Friend"
REM MUSICBRAINZ_ALBUM_ID cd2c3931-6faa-47ca-8b09-8f4ffb3aa519
REM MUSICBRAINZ_ALBUM_ARTIST_ID 69837400-8e31-4949-aac2-00b46b4df126
FILE "https://www.youtube.com/watch?v=nbRFxx1049I" MP3
REM DATE 2010-12-31
  TRACK 01 AUDIO
    PERFORMER "Angus & Julia Stone"
    TITLE "Private Lawns"
    REM MUSICBRAINZ_TRACK_ID 3bba7b5f-3608-3384-b438-e7edffb547a9
    REM MUSICBRAINZ_ARTIST_ID 69837400-8e31-4949-aac2-00b46b4df126
    INDEX 01 00:00:00
  TRACK 02 AUDIO
    PERFORMER "Angus & Julia Stone"
    TITLE Babylon
    REM MUSICBRAINZ_TRACK_ID 8e23c5a1-a1cc-3377-8ff0-30356ab6e503
    REM MUSICBRAINZ_ARTIST_ID 69837400-8e31-4949-aac2-00b46b4df126
    INDEX 01 03:04:00
  TRACK 03 AUDIO
    PERFORMER "Angus & Julia Stone"
    TITLE "Paper Aeroplane"
    REM MUSICBRAINZ_TRACK_ID dc28c754-d083-3f3d-8b5d-53bcfa49cfd1
    REM MUSICBRAINZ_ARTIST_ID 69837400-8e31-4949-aac2-00b46b4df126
    INDEX 01 08:05:00
  TRACK 04 AUDIO
    PERFORMER "Angus & Julia Stone"
    TITLE "Take You Away"
    REM MUSICBRAINZ_TRACK_ID 20b68a72-400e-3b4a-a2a7-6d72d41ec175
    REM MUSICBRAINZ_ARTIST_ID 69837400-8e31-4949-aac2-00b46b4df126
    INDEX 01 11:46:00
  TRACK 05 AUDIO
    PERFORMER "Angus & Julia Stone"
    TITLE "My Malakai"
    REM MUSICBRAINZ_TRACK_ID 02a1399e-beed-31df-9abe-3f4c6d4ebaf4
    REM MUSICBRAINZ_ARTIST_ID 69837400-8e31-4949-aac2-00b46b4df126
    INDEX 01 15:33:74
  TRACK 06 AUDIO
    PERFORMER "Angus & Julia Stone"
    TITLE "Lonely Hands"
    REM MUSICBRAINZ_TRACK_ID 02a10ff6-5772-3e5b-8329-985b8ff18ba7
    REM MUSICBRAINZ_ARTIST_ID 69837400-8e31-4949-aac2-00b46b4df126
    INDEX 01 18:40:00
  TRACK 07 AUDIO
    PERFORMER "Angus & Julia Stone"
    TITLE "Little Bird"
    REM MUSICBRAINZ_TRACK_ID b88eeaeb-419d-3446-8370-e38ba63eda50
    REM MUSICBRAINZ_ARTIST_ID 69837400-8e31-4949-aac2-00b46b4df126
    INDEX 01 22:26:74
  TRACK 08 AUDIO
    PERFORMER "Angus & Julia Stone"
    TITLE "Chocolates and Cigarettes"
    REM MUSICBRAINZ_TRACK_ID 3ad4e9e1-d40c-342a-8427-b05cf17fc7a7
    REM MUSICBRAINZ_ARTIST_ID 69837400-8e31-4949-aac2-00b46b4df126
    INDEX 01 26:55:00
  TRACK 09 AUDIO
    PERFORMER "Angus & Julia Stone"
    TITLE "Old Friend"
    REM MUSICBRAINZ_TRACK_ID c5676cce-2423-342a-9bde-3226fefa01ac
    REM MUSICBRAINZ_ARTIST_ID 69837400-8e31-4949-aac2-00b46b4df126
    INDEX 01 30:51:00
  TRACK 10 AUDIO
    PERFORMER "Angus & Julia Stone"
    TITLE Choking
    REM MUSICBRAINZ_TRACK_ID d0c5eca6-0663-3f0c-8ceb-4d0af32852f1
    REM MUSICBRAINZ_ARTIST_ID 69837400-8e31-4949-aac2-00b46b4df126
    INDEX 01 34:57:00
  TRACK 11 AUDIO
    PERFORMER "Angus & Julia Stone"
    TITLE "Mango Tree (American version)"
    REM MUSICBRAINZ_TRACK_ID 82f55c54-bfc5-3a55-a2f5-b7c96c18c6d7
    REM MUSICBRAINZ_ARTIST_ID 69837400-8e31-4949-aac2-00b46b4df126
    INDEX 01 40:43:00
  TRACK 12 AUDIO
    PERFORMER "Angus & Julia Stone"
    TITLE "Heart Full of Wine"
    REM MUSICBRAINZ_TRACK_ID 22801947-903e-3e8f-8ca2-93601661e597
    REM MUSICBRAINZ_ARTIST_ID 69837400-8e31-4949-aac2-00b46b4df126
    INDEX 01 44:28:00
  TRACK 13 AUDIO
    PERFORMER "Angus & Julia Stone"
    TITLE "All of Me"
    REM MUSICBRAINZ_TRACK_ID aff46aff-de8e-3280-8b5d-9384629ef400
    REM MUSICBRAINZ_ARTIST_ID 69837400-8e31-4949-aac2-00b46b4df126
    INDEX 01 48:54:74
